HIERARCHY
ROOT newVegas:Hips
{
	OFFSET 0.000000 96.479958 0.000000
	CHANNELS 6 Xposition Yposition Zposition Xrotation Yrotation Zrotation
	JOINT newVegas:Pelvis
	{
		OFFSET 0.000000 0.000000 0.000000
		CHANNELS 3 Xrotation Yrotation Zrotation
		JOINT newVegas:LeftUpLeg
		{
			OFFSET 18.735201 -5.666702 -4.541200
			CHANNELS 3 Xrotation Yrotation Zrotation
			JOINT newVegas:LeftLeg
			{
				OFFSET -0.021200 -31.938179 0.493100
				CHANNELS 3 Xrotation Yrotation Zrotation
				JOINT newVegas:LeftFoot
				{
					OFFSET 0.021200 -31.938179 -4.336299
					CHANNELS 3 Xrotation Yrotation Zrotation
					JOINT newVegas:LeftToeBase
					{
						OFFSET 0.943001 -26.722000 15.023500
						CHANNELS 3 Xrotation Yrotation Zrotation
						End Site
						{
							OFFSET 0.000000 30.670183 0.000000
						}
					}
				}
				JOINT newVegas:Left_PantLeg
				{
					OFFSET 0.663870 -9.044666 -1.108900
					CHANNELS 3 Xrotation Yrotation Zrotation
					End Site
					{
						OFFSET 1.415995 20.635357 0.000000
					}
				}
			}
		}
		JOINT newVegas:RightUpLeg
		{
			OFFSET -18.735201 -5.666702 -4.541200
			CHANNELS 3 Xrotation Yrotation Zrotation
			JOINT newVegas:RightLeg
			{
				OFFSET 0.018946 -31.938133 0.493100
				CHANNELS 3 Xrotation Yrotation Zrotation
				JOINT newVegas:RightFoot
				{
					OFFSET -0.018946 -31.938126 -4.336299
					CHANNELS 3 Xrotation Yrotation Zrotation
					JOINT newVegas:RightToeBase
					{
						OFFSET -0.943001 -26.722004 15.023500
						CHANNELS 3 Xrotation Yrotation Zrotation
						End Site
						{
							OFFSET 0.000000 30.670187 0.000000
						}
					}
				}
				JOINT newVegas:Right_PantLeg
				{
					OFFSET -0.661674 -9.044716 -1.108900
					CHANNELS 3 Xrotation Yrotation Zrotation
					End Site
					{
						OFFSET -1.415958 20.635269 0.000000
					}
				}
			}
		}
	}
	JOINT newVegas:Spine
	{
		OFFSET 0.000000 10.199997 -0.299500
		CHANNELS 3 Xrotation Yrotation Zrotation
		JOINT newVegas:Spine1
		{
			OFFSET 0.000000 11.900002 -1.516600
			CHANNELS 3 Xrotation Yrotation Zrotation
			JOINT newVegas:Spine2
			{
				OFFSET 0.000000 13.600006 -2.842500
				CHANNELS 3 Xrotation Yrotation Zrotation
				JOINT newVegas:Neck
				{
					OFFSET 0.000000 9.624100 -2.890100
					CHANNELS 3 Xrotation Yrotation Zrotation
					JOINT newVegas:Head
					{
						OFFSET 0.000000 14.068802 -1.351900
						CHANNELS 3 Xrotation Yrotation Zrotation
						JOINT newVegas:Hair_Back
						{
							OFFSET 0.000000 3.231903 -17.524799
							CHANNELS 3 Xrotation Yrotation Zrotation
							End Site
							{
								OFFSET 0.000000 19.849884 0.000000
							}
						}
						JOINT newVegas:Hair_Front
						{
							OFFSET 0.000000 31.260406 4.573800
							CHANNELS 3 Xrotation Yrotation Zrotation
							JOINT newVegas:Hair_Front1
							{
								OFFSET 0.000000 2.284103 11.993300
								CHANNELS 3 Xrotation Yrotation Zrotation
								JOINT newVegas:Hair_Front2
								{
									OFFSET 0.000000 2.284103 11.993300
									CHANNELS 3 Xrotation Yrotation Zrotation
									End Site
									{
										OFFSET 0.000000 12.208862 0.000000
									}
								}
							}
						}
						JOINT newVegas:Jowel
						{
							OFFSET 0.000000 -7.458206 6.864100
							CHANNELS 3 Xrotation Yrotation Zrotation
							End Site
							{
								OFFSET 0.000000 19.849884 0.000000
							}
						}
					}
				}
				JOINT newVegas:LeftShoulder
				{
					OFFSET 15.263000 10.923401 -0.547700
					CHANNELS 3 Xrotation Yrotation Zrotation
					JOINT newVegas:LeftArm
					{
						OFFSET 25.438599 -2.830597 -13.032500
						CHANNELS 3 Xrotation Yrotation Zrotation
						JOINT newVegas:LeftForeArm
						{
							OFFSET 29.960503 0.000000 0.000000
							CHANNELS 3 Xrotation Yrotation Zrotation
							JOINT newVegas:LeftHand
							{
								OFFSET 27.849251 0.000000 0.000000
								CHANNELS 3 Xrotation Yrotation Zrotation
								JOINT newVegas:LeftHandThumb1
								{
									OFFSET 4.487587 -3.305161 6.305391
									CHANNELS 3 Xrotation Yrotation Zrotation
									JOINT newVegas:LeftHandThumb2
									{
										OFFSET 5.480453 -3.164139 3.164143
										CHANNELS 3 Xrotation Yrotation Zrotation
										JOINT newVegas:LeftHandThumb3
										{
											OFFSET 5.159721 -2.978973 2.978967
											CHANNELS 3 Xrotation Yrotation Zrotation
											End Site
											{
												OFFSET 2.494507 5.926697 1.738678
											}
										}
									}
								}
								JOINT newVegas:LeftHandIndex1
								{
									OFFSET 18.578728 -0.527832 5.208049
									CHANNELS 3 Xrotation Yrotation Zrotation
									JOINT newVegas:LeftHandIndex2
									{
										OFFSET 3.192009 0.000000 0.000000
										CHANNELS 3 Xrotation Yrotation Zrotation
										JOINT newVegas:LeftHandIndex3
										{
											OFFSET 3.835129 0.000000 0.000000
											CHANNELS 3 Xrotation Yrotation Zrotation
											End Site
											{
												OFFSET -0.034599 3.816971 0.371180
											}
										}
									}
								}
								JOINT newVegas:LeftHandMiddle1
								{
									OFFSET 18.476105 0.000000 0.000000
									CHANNELS 3 Xrotation Yrotation Zrotation
									JOINT newVegas:LeftHandMiddle2
									{
										OFFSET 3.324875 0.000000 0.000000
										CHANNELS 3 Xrotation Yrotation Zrotation
										JOINT newVegas:LeftHandMiddle3
										{
											OFFSET 4.596550 0.000000 0.000000
											CHANNELS 3 Xrotation Yrotation Zrotation
											End Site
											{
												OFFSET 0.057701 4.578827 0.399218
											}
										}
									}
								}
								JOINT newVegas:LeftHandRing1
								{
									OFFSET 17.732719 0.121887 -4.201567
									CHANNELS 3 Xrotation Yrotation Zrotation
									JOINT newVegas:LeftHandRing2
									{
										OFFSET 2.733170 0.000000 0.000000
										CHANNELS 3 Xrotation Yrotation Zrotation
										JOINT newVegas:LeftHandRing3
										{
											OFFSET 3.178268 0.000000 0.000000
											CHANNELS 3 Xrotation Yrotation Zrotation
											End Site
											{
												OFFSET 0.119102 3.170624 0.185394
											}
										}
									}
								}
								JOINT newVegas:LeftHandPinky1
								{
									OFFSET 15.989624 -0.606689 -7.535461
									CHANNELS 3 Xrotation Yrotation Zrotation
									JOINT newVegas:LeftHandPinky2
									{
										OFFSET 2.538986 0.000000 0.000000
										CHANNELS 3 Xrotation Yrotation Zrotation
										JOINT newVegas:LeftHandPinky3
										{
											OFFSET 2.593102 0.000000 0.000000
											CHANNELS 3 Xrotation Yrotation Zrotation
											End Site
											{
												OFFSET -0.150902 2.584198 0.152708
											}
										}
									}
								}
							}
							JOINT newVegas:Left_Sleeve
							{
								OFFSET 0.267448 -0.649796 0.577675
								CHANNELS 3 Xrotation Yrotation Zrotation
								End Site
								{
									OFFSET 0.000000 15.991241 0.000000
								}
							}
							JOINT newVegas:Left_CapeC
							{
								OFFSET 15.715958 -8.608795 -6.935905
								CHANNELS 3 Xrotation Yrotation Zrotation
								JOINT newVegas:Left_CapeC1
								{
									OFFSET 0.000000 -8.688499 0.000000
									CHANNELS 3 Xrotation Yrotation Zrotation
									End Site
									{
										OFFSET 0.000000 8.688499 0.000000
									}
								}
							}
						}
						JOINT newVegas:Left_CapeB
						{
							OFFSET 26.118385 -8.608795 -7.079235
							CHANNELS 3 Xrotation Yrotation Zrotation
							JOINT newVegas:Left_CapeB1
							{
								OFFSET 0.000000 -8.688499 0.000000
								CHANNELS 3 Xrotation Yrotation Zrotation
								End Site
								{
									OFFSET 0.000000 8.688499 0.000000
								}
							}
						}
						JOINT newVegas:Left_CapeA
						{
							OFFSET 5.115639 -8.608795 -10.395809
							CHANNELS 3 Xrotation Yrotation Zrotation
							JOINT newVegas:Left_CapeA1
							{
								OFFSET 0.000000 -8.688499 0.000000
								CHANNELS 3 Xrotation Yrotation Zrotation
								End Site
								{
									OFFSET 0.000000 8.688499 0.000000
								}
							}
						}
					}
				}
				JOINT newVegas:RightShoulder
				{
					OFFSET -15.263000 10.923401 -0.547700
					CHANNELS 3 Xrotation Yrotation Zrotation
					JOINT newVegas:RightArm
					{
						OFFSET -25.438599 -2.830597 -13.032500
						CHANNELS 3 Xrotation Yrotation Zrotation
						JOINT newVegas:RightForeArm
						{
							OFFSET -29.960503 0.000000 0.000000
							CHANNELS 3 Xrotation Yrotation Zrotation
							JOINT newVegas:RightHand
							{
								OFFSET -27.849251 0.000000 0.000000
								CHANNELS 3 Xrotation Yrotation Zrotation
								JOINT newVegas:RightHandThumb1
								{
									OFFSET -4.487587 -3.305161 6.305391
									CHANNELS 3 Xrotation Yrotation Zrotation
									JOINT newVegas:RightHandThumb2
									{
										OFFSET -5.480453 -3.164139 3.164143
										CHANNELS 3 Xrotation Yrotation Zrotation
										JOINT newVegas:RightHandThumb3
										{
											OFFSET -5.159721 -2.978973 2.978967
											CHANNELS 3 Xrotation Yrotation Zrotation
											End Site
											{
												OFFSET -2.494507 5.926697 1.738678
											}
										}
									}
								}
								JOINT newVegas:RightHandIndex1
								{
									OFFSET -18.578728 -0.527832 5.208049
									CHANNELS 3 Xrotation Yrotation Zrotation
									JOINT newVegas:RightHandIndex2
									{
										OFFSET -3.192009 0.000000 0.000000
										CHANNELS 3 Xrotation Yrotation Zrotation
										JOINT newVegas:RightHandIndex3
										{
											OFFSET -3.835129 0.000000 0.000000
											CHANNELS 3 Xrotation Yrotation Zrotation
											End Site
											{
												OFFSET 0.034599 3.816971 0.371180
											}
										}
									}
								}
								JOINT newVegas:RightHandMiddle1
								{
									OFFSET -18.476105 0.000000 0.000000
									CHANNELS 3 Xrotation Yrotation Zrotation
									JOINT newVegas:RightHandMiddle2
									{
										OFFSET -3.324875 0.000000 0.000000
										CHANNELS 3 Xrotation Yrotation Zrotation
										JOINT newVegas:RightHandMiddle3
										{
											OFFSET -4.596550 0.000000 0.000000
											CHANNELS 3 Xrotation Yrotation Zrotation
											End Site
											{
												OFFSET -0.057701 4.578827 0.399218
											}
										}
									}
								}
								JOINT newVegas:RightHandRing1
								{
									OFFSET -17.732719 0.121887 -4.201567
									CHANNELS 3 Xrotation Yrotation Zrotation
									JOINT newVegas:RightHandRing2
									{
										OFFSET -2.733170 0.000000 0.000000
										CHANNELS 3 Xrotation Yrotation Zrotation
										JOINT newVegas:RightHandRing3
										{
											OFFSET -3.178268 0.000000 0.000000
											CHANNELS 3 Xrotation Yrotation Zrotation
											End Site
											{
												OFFSET -0.119102 3.170624 0.185394
											}
										}
									}
								}
								JOINT newVegas:RightHandPinky1
								{
									OFFSET -15.989624 -0.606689 -7.535461
									CHANNELS 3 Xrotation Yrotation Zrotation
									JOINT newVegas:RightHandPinky2
									{
										OFFSET -2.538986 0.000000 0.000000
										CHANNELS 3 Xrotation Yrotation Zrotation
										JOINT newVegas:RightHandPinky3
										{
											OFFSET -2.593102 0.000000 0.000000
											CHANNELS 3 Xrotation Yrotation Zrotation
											End Site
											{
												OFFSET 0.150902 2.584198 0.152708
											}
										}
									}
								}
							}
							JOINT newVegas:Right_CapeC
							{
								OFFSET -15.715958 -8.608795 -6.935905
								CHANNELS 3 Xrotation Yrotation Zrotation
								JOINT newVegas:Right_CapeC1
								{
									OFFSET 0.000000 -8.688499 0.000000
									CHANNELS 3 Xrotation Yrotation Zrotation
									End Site
									{
										OFFSET 0.000000 8.688499 0.000000
									}
								}
							}
							JOINT newVegas:Right_Sleeve
							{
								OFFSET -0.267448 -0.649994 0.577675
								CHANNELS 3 Xrotation Yrotation Zrotation
								End Site
								{
									OFFSET 0.000000 15.991302 0.000000
								}
							}
						}
						JOINT newVegas:Right_CapeA
						{
							OFFSET -5.115540 -8.608795 -10.395824
							CHANNELS 3 Xrotation Yrotation Zrotation
							JOINT newVegas:Right_CapeA1
							{
								OFFSET 0.000000 -8.688499 0.000000
								CHANNELS 3 Xrotation Yrotation Zrotation
								End Site
								{
									OFFSET 0.000000 8.688499 0.000000
								}
							}
						}
						JOINT newVegas:Right_CapeB
						{
							OFFSET -26.118187 -8.608795 -7.079266
							CHANNELS 3 Xrotation Yrotation Zrotation
							JOINT newVegas:Right_CapeB1
							{
								OFFSET 0.000000 -8.688499 0.000000
								CHANNELS 3 Xrotation Yrotation Zrotation
								End Site
								{
									OFFSET 0.000000 8.688499 0.000000
								}
							}
						}
					}
				}
				JOINT newVegas:Left_Collar
				{
					OFFSET 18.625099 8.655502 8.828100
					CHANNELS 3 Xrotation Yrotation Zrotation
					JOINT newVegas:Left_Collar1
					{
						OFFSET 14.783401 10.540405 -1.259500
						CHANNELS 3 Xrotation Yrotation Zrotation
						End Site
						{
							OFFSET 0.000000 18.199875 0.000000
						}
					}
				}
				JOINT newVegas:Collar_Back
				{
					OFFSET 0.000000 15.630707 -20.132601
					CHANNELS 3 Xrotation Yrotation Zrotation
					End Site
					{
						OFFSET 0.000000 22.523010 0.000000
					}
				}
				JOINT newVegas:Left_Peck
				{
					OFFSET 17.239599 -5.132599 25.482599
					CHANNELS 3 Xrotation Yrotation Zrotation
					End Site
					{
						OFFSET 0.000000 22.523010 0.000000
					}
				}
				JOINT newVegas:Right_Peck
				{
					OFFSET -17.239599 -5.132202 25.482599
					CHANNELS 3 Xrotation Yrotation Zrotation
					End Site
					{
						OFFSET 0.000000 22.523010 0.000000
					}
				}
				JOINT newVegas:Right_Collar
				{
					OFFSET -18.625099 8.655792 8.828100
					CHANNELS 3 Xrotation Yrotation Zrotation
					JOINT newVegas:Right_Collar1
					{
						OFFSET -14.783401 10.539993 -1.259500
						CHANNELS 3 Xrotation Yrotation Zrotation
						End Site
						{
							OFFSET 0.000000 18.199631 0.000000
						}
					}
				}
			}
		}
		JOINT newVegas:Belly
		{
			OFFSET 0.000000 -6.540398 9.014299
			CHANNELS 3 Xrotation Yrotation Zrotation
			End Site
			{
				OFFSET 0.000000 11.566666 0.000000
			}
		}
	}
	JOINT newVegas:ElvisFacialAnim_Joint
	{
		OFFSET 1.000000 -95.330101 -8.825800
		CHANNELS 3 Xrotation Yrotation Zrotation
		End Site
		{
			OFFSET 0.000000 35.315800 0.000000
		}
	}
}
MOTION
Frames: 4
Frame Time: 0.033333
3.098827 85.081139 4.856129 37.337349 12.633611 5.051752 0.000001 -0.000001 -0.000001 -65.087434 -5.000759 6.833675 39.415321 8.902089 3.525800 6.626140 -0.109270 -10.054874 -0.000000 -0.000001 -0.000003 0.000001 0.000000 0.000002 -50.901975 -6.588465 14.842199 41.337282 2.415854 -2.946375 -28.630895 -9.408316 -32.711173 -0.000000 0.000000 0.000001 0.000002 0.000000 -0.000001 10.397145 2.158719 2.965257 7.314156 0.340343 0.924816 7.314563 0.334966 0.923315 -3.451087 -2.072272 0.100641 -3.451080 -2.072274 0.100638 0.000000 0.000001 0.000000 -3.451076 -2.072286 0.100646 -3.451025 -2.072275 0.100644 0.000004 -0.000001 -0.000000 0.000000 0.000001 -0.000000 0.621867 -2.816027 -15.655586 -5.905446 19.223422 -59.015785 -0.000000 -46.765305 0.000004 -12.004315 -17.290424 0.042718 -6.901719 -0.048964 -10.386485 8.013995 28.009014 2.628099 0.000000 -0.000004 -0.000001 12.064293 -11.464836 -7.840538 0.749954 2.869733 -29.285819 0.000000 -0.000001 -0.000000 0.163356 3.654029 -19.669903 1.450505 3.859964 -41.178391 0.000001 0.000000 0.000002 2.387670 7.378660 -37.174957 0.816691 2.985458 -30.592445 0.000001 -0.000001 0.000000 5.298714 21.010002 -52.432039 1.498060 3.913531 -41.879909 0.000001 -0.000003 -0.000001 0.000000 -0.000001 -0.000000 0.000000 -0.000001 -0.000000 0.000000 -0.000001 0.000000 0.000001 -0.000003 0.000001 0.000000 -0.000003 0.000000 0.000001 -0.000003 0.000001 -0.000001 -0.000003 0.000001 0.536688 4.324270 16.473516 -7.508893 -9.399571 57.627003 0.000011 25.406548 0.000009 19.208109 12.951629 -14.707194 -2.160439 -2.364331 5.695291 7.296431 -22.340557 -2.735043 0.000003 -0.000002 0.000003 3.028957 -0.189710 -9.530856 0.818119 -2.638424 34.449555 -0.000001 0.000002 -0.000001 0.188435 -3.417168 14.082884 0.802251 -2.615195 34.103790 0.000000 0.000004 -0.000005 2.634132 -7.377155 35.541193 0.831992 -2.658519 34.749861 -0.000001 -0.000003 -0.000001 2.739731 -18.622733 40.687659 0.879618 -2.725808 35.763892 0.000001 0.000002 -0.000003 0.000000 0.000006 -0.000002 0.000000 0.000006 -0.000002 0.000000 0.000006 -0.000001 0.000001 0.000001 0.000000 0.000001 0.000002 0.000001 0.000001 0.000001 0.000000 0.000001 0.000001 0.000001 -0.000001 -0.000002 -0.000000 -0.000001 -0.000002 -0.000000 -0.000001 -0.000002 -0.000000 -0.000001 -0.000002 -0.000000 -0.000001 -0.000002 -0.000000 -0.000001 -0.000002 -0.000000 -0.000001 -0.000002 -0.000000 -0.000000 0.000000 -0.000000 0.000001 -0.000001 -0.000001 
3.673930 85.484200 14.083866 33.951487 10.807992 5.671850 -0.000002 -0.000000 -0.000001 -62.370835 -4.687169 11.259441 29.227769 6.442339 3.280042 11.792615 -1.276529 -27.854836 0.000000 0.000001 -0.000000 0.000000 -0.000001 -0.000002 -45.630503 -7.013232 12.422627 47.536252 1.968208 -2.945272 -25.137750 -9.620169 -21.632476 -0.000000 -0.000000 0.000000 -0.000002 0.000001 0.000000 9.653722 3.096148 3.292731 6.367274 0.848793 0.908701 6.362725 0.876275 0.848375 -2.524103 -2.178531 -0.036114 -2.524114 -2.178529 -0.036121 0.000001 0.000000 -0.000000 -2.524104 -2.178532 -0.036115 -2.524128 -2.178534 -0.036121 0.000001 0.000001 0.000000 0.000001 0.000000 -0.000000 0.765393 -3.021189 -13.508708 -2.498820 30.996580 -52.377145 -0.000011 -50.086115 -0.000006 -14.473673 -16.866035 -1.082709 -6.965729 -0.379914 -10.495057 8.013994 28.009011 2.628102 -0.000000 -0.000002 -0.000003 12.611255 -12.721127 -9.004220 0.810027 2.974179 -30.464327 0.000001 -0.000001 0.000003 0.155962 3.652379 -20.160504 1.363499 3.758402 -39.868825 -0.000000 -0.000000 -0.000000 2.373581 7.422201 -36.061824 0.653610 2.690953 -27.299851 -0.000001 0.000001 0.000000 4.773623 21.927885 -49.980517 1.255742 3.625763 -38.195596 -0.000002 -0.000007 -0.000001 0.000001 -0.000001 0.000000 0.000001 -0.000001 0.000000 0.000000 -0.000001 0.000001 -0.000002 0.000001 -0.000001 -0.000002 0.000000 -0.000002 -0.000002 0.000001 -0.000001 -0.000004 0.000002 -0.000000 1.069663 2.667621 16.280734 0.137291 -13.052256 54.634574 -0.000000 22.408480 -0.000006 32.953569 9.877950 -11.803311 -2.160444 -2.364335 5.695296 7.296439 -22.340562 -2.735037 -0.000000 -0.000003 0.000001 3.022372 -0.220233 -7.287622 0.847036 -2.680074 35.073134 0.000002 0.000003 -0.000001 0.198577 -3.456859 14.586321 0.751105 -2.538093 32.965963 0.000001 0.000002 -0.000000 2.608936 -7.411782 34.758447 0.739700 -2.520402 32.707003 0.000002 -0.000003 -0.000002 2.540739 -18.959357 39.130103 0.759520 -2.550998 33.155736 -0.000004 0.000001 0.000001 -0.000000 -0.000001 0.000001 -0.000000 -0.000001 0.000000 -0.000000 -0.000001 0.000002 0.000001 -0.000003 -0.000000 0.000001 -0.000003 0.000000 0.000001 -0.000003 -0.000000 0.000001 -0.000003 -0.000000 -0.000000 -0.000000 0.000001 -0.000000 -0.000000 0.000001 -0.000000 -0.000000 0.000001 -0.000000 -0.000000 0.000001 -0.000000 -0.000000 0.000001 -0.000000 -0.000000 0.000001 -0.000000 -0.000000 0.000001 0.000001 -0.000000 -0.000000 -0.000002 -0.000000 -0.000001 
1.617198 86.460083 23.077188 29.153030 4.609958 8.517423 0.000001 -0.000000 0.000000 -56.733180 -1.683104 13.435355 19.752274 6.176797 3.065556 19.476383 -4.358586 -33.217505 -0.000000 0.000000 -0.000001 0.000001 0.000000 0.000001 -38.261343 -8.226665 11.247553 48.806578 1.268325 -2.798087 -13.699590 -8.656813 -16.591163 -0.000001 0.000001 -0.000000 -0.000001 0.000002 0.000001 8.147716 3.151912 3.733787 5.476158 2.641788 0.472949 5.509983 2.623480 0.240782 -1.607450 -2.247411 -0.220207 -1.607426 -2.247415 -0.220207 -0.000002 -0.000000 0.000000 -1.607411 -2.247406 -0.220210 -1.607392 -2.247429 -0.220203 0.000001 0.000000 -0.000000 -0.000002 -0.000000 -0.000001 0.917891 -4.139698 -8.767944 0.295947 38.293114 -45.462128 0.000010 -56.734317 0.000011 -17.137696 -15.979140 -2.933902 -6.990686 -0.508325 -10.537201 8.013997 28.009016 2.628105 0.000003 0.000001 -0.000001 12.035027 -13.532614 -12.301506 0.988343 3.257968 -33.743720 -0.000001 -0.000001 -0.000000 0.216283 3.907633 -22.903170 1.435507 3.842786 -40.955081 0.000000 -0.000001 -0.000000 2.520757 7.542522 -37.341566 0.655922 2.695430 -27.349029 0.000000 0.000001 0.000000 4.825677 22.295730 -49.889522 1.180322 3.527983 -36.986653 0.000002 -0.000003 -0.000001 0.000000 -0.000000 0.000001 0.000000 -0.000000 0.000001 0.000000 -0.000000 0.000002 0.000001 -0.000001 0.000001 0.000001 -0.000002 0.000002 0.000001 -0.000001 0.000001 0.000001 -0.000002 0.000001 1.065396 1.946981 15.567963 8.160501 -14.367124 50.310408 -0.000003 17.154005 -0.000011 45.765956 8.867701 -3.825765 -2.160439 -2.364328 5.695288 7.296439 -22.340558 -2.735034 0.000004 -0.000000 -0.000001 2.686196 -0.502166 -0.584610 1.077762 -2.981390 39.742449 -0.000003 0.000000 -0.000000 0.309752 -3.821283 19.271025 0.921826 -2.783395 36.641950 -0.000001 -0.000001 0.000000 2.803040 -7.417404 37.728961 0.857916 -2.695469 35.304811 -0.000001 -0.000001 0.000001 2.714600 -18.460912 40.991831 0.826434 -2.650492 34.630008 -0.000001 -0.000000 0.000001 0.000000 0.000006 -0.000000 0.000001 0.000002 -0.000001 0.000001 0.000006 -0.000000 0.000001 0.000000 0.000000 0.000001 0.000001 -0.000002 0.000001 0.000000 0.000000 0.000001 0.000001 -0.000000 -0.000002 0.000000 0.000001 -0.000002 0.000000 0.000001 -0.000002 0.000000 0.000001 -0.000002 0.000000 0.000001 -0.000002 0.000000 0.000001 -0.000002 0.000000 0.000001 -0.000002 0.000000 0.000001 0.000003 0.000000 0.000001 0.000001 -0.000000 0.000000 
-2.085991 88.025612 29.904531 24.028250 -3.558306 11.359939 -0.000000 0.000000 -0.000000 -48.221494 1.190232 12.524045 15.563593 7.507847 3.091962 21.433081 -1.791170 -31.999341 0.000000 0.000001 -0.000001 -0.000001 0.000000 0.000001 -29.962838 -7.400781 7.062772 47.109778 0.995411 -2.465265 -1.105347 -8.593941 -3.702971 0.000002 0.000000 0.000000 0.000001 -0.000001 0.000001 6.760636 1.816280 4.288765 4.580648 4.664231 -0.088437 4.670041 4.622751 -0.511599 -0.813257 -2.213519 -0.516340 -0.813258 -2.213527 -0.516353 0.000000 -0.000001 -0.000001 -0.813255 -2.213514 -0.516350 -0.813306 -2.213513 -0.516354 -0.000000 -0.000000 0.000000 0.000000 -0.000001 -0.000001 1.095491 -5.459411 -3.937060 0.751615 41.383498 -38.718027 0.000003 -61.925958 -0.000004 -19.664258 -14.920668 -5.003569 -6.958366 -0.327447 -10.474006 8.013998 28.009014 2.628105 -0.000000 0.000002 0.000001 10.018865 -13.383780 -18.298965 1.336847 3.726321 -39.460369 -0.000001 -0.000002 0.000000 0.394925 4.446293 -28.120111 1.703151 4.130318 -44.803357 -0.000000 0.000001 0.000000 2.837079 7.706531 -41.312608 0.855445 3.049962 -31.328551 -0.000004 -0.000001 -0.000001 5.575807 21.804009 -52.663422 1.335372 3.724537 -39.437779 0.000001 -0.000001 -0.000003 0.000001 0.000001 0.000001 0.000001 0.000001 0.000001 0.000001 0.000000 0.000000 0.000002 0.000002 -0.000000 0.000002 0.000001 -0.000000 0.000002 0.000002 -0.000000 0.000002 0.000001 -0.000002 0.502440 2.476039 14.474732 20.632577 -16.020046 46.244581 0.000009 20.847218 0.000010 55.018372 14.032482 8.351530 -2.160440 -2.364332 5.695291 7.296436 -22.340558 -2.735044 -0.000000 -0.000004 0.000001 2.136624 -1.161562 10.322042 1.560424 -3.480114 48.290691 0.000000 0.000001 -0.000000 0.585248 -4.452896 27.753944 1.359517 -3.290381 44.889400 -0.000001 0.000002 0.000002 3.163461 -7.363907 44.192557 1.254588 -3.181760 43.030656 0.000002 0.000002 -0.000000 3.164228 -17.095528 46.643755 1.162019 -3.079738 41.335987 0.000001 -0.000004 -0.000001 -0.000000 -0.000001 -0.000001 -0.000000 -0.000003 0.000000 -0.000000 -0.000001 -0.000000 -0.000001 0.000003 0.000000 -0.000001 0.000003 0.000000 -0.000001 0.000003 0.000000 -0.000001 0.000003 -0.000000 0.000000 0.000001 0.000001 0.000000 0.000001 0.000001 0.000000 0.000001 0.000001 0.000000 0.000001 0.000001 0.000000 0.000001 0.000001 0.000000 0.000001 0.000001 0.000000 0.000001 0.000001 -0.000000 0.000000 -0.000000 -0.000000 0.000000 -0.000000 
